<?xml version="1.0" encoding="UTF-8" standalone="no"?><!DOCTYPE svg PUBLIC "-//W3C//DTD SVG 1.1//EN" "http://www.w3.org/Graphics/SVG/1.1/DTD/svg11.dtd"><!-- Generated by graphviz version 2.40.1 (20161225.0304)
 --><!-- Title: G Pages: 1 --><svg xmlns="http://www.w3.org/2000/svg" xmlns:xlink="http://www.w3.org/1999/xlink" width="510pt" height="178pt" viewBox="0.00 0.00 510.00 177.60">
<g id="graph0" class="graph" transform="scale(1 1) rotate(0) translate(4 173.6)">
<title>G</title>
<polygon fill="#ffffff" stroke="transparent" points="-4,4 -4,-173.6 506,-173.6 506,4 -4,4"/>
<g id="clust1" class="cluster">
<title>cluster_0</title>
<polygon fill="none" stroke="#f08705" stroke-dasharray="5,2" points="108,-80 108,-132 322,-132 322,-80 108,-80"/>
</g>
<g id="clust2" class="cluster">
<title>cluster_1</title>
<polygon fill="none" stroke="#82b366" stroke-dasharray="5,2" points="8,-8 8,-161.6 100,-161.6 100,-8 8,-8"/>
<text text-anchor="middle" x="54" y="-141.4" font-family="Helvetica,sans-Serif" font-size="18.00" fill="#82b366">graph</text>
</g>
<g id="clust3" class="cluster">
<title>cluster_2</title>
<polygon fill="none" stroke="#82b366" stroke-dasharray="5,2" points="330,-8 330,-161.6 494,-161.6 494,-8 330,-8"/>
<text text-anchor="middle" x="412" y="-141.4" font-family="Helvetica,sans-Serif" font-size="18.00" fill="#82b366">launch_graph</text>
</g>
<!-- var_v0 -->
<g id="node1" class="node">
<title>var_v0</title>
<path fill="#f5af58" stroke="#f08705" d="M230,-124C230,-124 200,-124 200,-124 194,-124 188,-118 188,-112 188,-112 188,-100 188,-100 188,-94 194,-88 200,-88 200,-88 230,-88 230,-88 236,-88 242,-94 242,-100 242,-100 242,-112 242,-112 242,-118 236,-124 230,-124"/>
<text text-anchor="middle" x="215" y="-101.8" font-family="Helvetica,sans-Serif" font-size="14.00" fill="#000000">src</text>
</g>
<!-- node_g1_n0 -->
<g id="node5" class="node">
<title>node_g1_n0</title>
<polygon fill="#d5e8d4" stroke="#82b366" points="62.0946,-16.0493 64.1435,-16.1479 66.1712,-16.2953 68.1694,-16.4913 70.1301,-16.7353 72.0454,-17.0266 73.9076,-17.3645 75.7096,-17.7479 77.4446,-18.1759 79.106,-18.6472 80.688,-19.1606 82.1849,-19.7147 83.5918,-20.308 84.9043,-20.9388 86.1184,-21.6054 87.2309,-22.3059 88.2389,-23.0385 89.1404,-23.8012 89.9336,-24.5918 90.6177,-25.4082 91.1922,-26.2481 91.6571,-27.1093 92.0132,-27.9894 92.2615,-28.886 92.4038,-29.7965 92.4421,-30.7186 92.3789,-31.6497 92.2171,-32.5873 91.96,-33.5287 91.6111,-34.4713 91.1743,-35.4127 90.6535,-36.3503 90.0531,-37.2814 89.3774,-38.2035 88.6309,-39.114 87.818,-40.0106 86.9434,-40.8907 86.0116,-41.7519 85.027,-42.5918 83.9941,-43.4082 82.917,-44.1988 81.7999,-44.9615 80.6468,-45.6941 79.4614,-46.3946 78.2473,-47.0612 77.0078,-47.692 75.7459,-48.2853 74.4646,-48.8394 73.1665,-49.3528 71.8539,-49.8241 70.5291,-50.2521 69.194,-50.6355 67.8502,-50.9734 66.4995,-51.2647 65.1431,-51.5087 63.7823,-51.7047 62.4182,-51.8521 61.0518,-51.9507 59.6841,-52 58.3159,-52 56.9482,-51.9507 55.5818,-51.8521 54.2177,-51.7047 52.8569,-51.5087 51.5005,-51.2647 50.1498,-50.9734 48.806,-50.6355 47.4709,-50.2521 46.1461,-49.8241 44.8335,-49.3528 43.5354,-48.8394 42.2541,-48.2853 40.9922,-47.692 39.7527,-47.0612 38.5386,-46.3946 37.3532,-45.6941 36.2001,-44.9615 35.083,-44.1988 34.0059,-43.4082 32.973,-42.5918 31.9884,-41.7519 31.0566,-40.8907 30.182,-40.0106 29.3691,-39.114 28.6226,-38.2035 27.9469,-37.2814 27.3465,-36.3503 26.8257,-35.4127 26.3889,-34.4713 26.04,-33.5287 25.7829,-32.5873 25.6211,-31.6497 25.5579,-30.7186 25.5962,-29.7965 25.7385,-28.886 25.9868,-27.9894 26.3429,-27.1093 26.8078,-26.2481 27.3823,-25.4082 28.0664,-24.5918 28.8596,-23.8012 29.7611,-23.0385 30.7691,-22.3059 31.8816,-21.6054 33.0957,-20.9388 34.4082,-20.308 35.8151,-19.7147 37.312,-19.1606 38.894,-18.6472 40.5554,-18.1759 42.2904,-17.7479 44.0924,-17.3645 45.9546,-17.0266 47.8699,-16.7353 49.8306,-16.4913 51.8288,-16.2953 53.8565,-16.1479 55.9054,-16.0493 57.967,-16 60.033,-16 62.0946,-16.0493"/>
<text text-anchor="middle" x="59" y="-29.8" font-family="Helvetica,sans-Serif" font-size="14.00" fill="#000000">copy</text>
</g>
<!-- var_v0&#45;&gt;node_g1_n0 -->
<g id="edge1" class="edge">
<title>var_v0-&gt;node_g1_n0</title>
<path fill="none" stroke="#64bbe2" d="M191.5555,-87.7539C187.4839,-84.9714 183.2044,-82.2739 179,-80 151.5514,-65.1552 118.2768,-52.8005 93.7352,-44.6461"/>
<ellipse fill="#64bbe2" stroke="#64bbe2" cx="89.8946" cy="-43.391" rx="4" ry="4"/>
</g>
<!-- var_v1 -->
<g id="node2" class="node">
<title>var_v1</title>
<path fill="#f5af58" stroke="#f08705" d="M158,-124C158,-124 128,-124 128,-124 122,-124 116,-118 116,-112 116,-112 116,-100 116,-100 116,-94 122,-88 128,-88 128,-88 158,-88 158,-88 164,-88 170,-94 170,-100 170,-100 170,-112 170,-112 170,-118 164,-124 158,-124"/>
<text text-anchor="middle" x="143" y="-101.8" font-family="Helvetica,sans-Serif" font-size="14.00" fill="#000000">dst</text>
</g>
<!-- var_v1&#45;&gt;node_g1_n0 -->
<g id="edge2" class="edge">
<title>var_v1-&gt;node_g1_n0</title>
<path fill="none" stroke="#f08e81" d="M121.8033,-87.8314C110.7159,-78.3279 97.0409,-66.6065 85.2852,-56.5301"/>
<polygon fill="#f08e81" stroke="#f08e81" points="85.0718,-56.3473 77.9131,-55.4796 75.9607,-48.5378 83.1195,-49.4055 85.0718,-56.3473"/>
</g>
<!-- var_v2 -->
<g id="node3" class="node">
<title>var_v2</title>
<path fill="#d5e8d4" stroke="#82b366" d="M302,-124C302,-124 272,-124 272,-124 266,-124 260,-118 260,-112 260,-112 260,-100 260,-100 260,-94 266,-88 272,-88 272,-88 302,-88 302,-88 308,-88 314,-94 314,-100 314,-100 314,-112 314,-112 314,-118 308,-124 302,-124"/>
<text text-anchor="middle" x="287" y="-101.8" font-family="Helvetica,sans-Serif" font-size="14.00" fill="#000000">graph</text>
</g>
<!-- node_g2_n0 -->
<g id="node7" class="node">
<title>node_g2_n0</title>
<polygon fill="#d5e8d4" stroke="#82b366" points="399.8948,-16.0493 402.4735,-16.1479 405.0256,-16.2953 407.5405,-16.4913 410.0082,-16.7353 412.4187,-17.0266 414.7625,-17.3645 417.0305,-17.7479 419.2141,-18.1759 421.3052,-18.6472 423.2962,-19.1606 425.1802,-19.7147 426.9509,-20.308 428.6028,-20.9388 430.1309,-21.6054 431.531,-22.3059 432.7997,-23.0385 433.9342,-23.8012 434.9326,-24.5918 435.7936,-25.4082 436.5166,-26.2481 437.1017,-27.1093 437.5499,-27.9894 437.8624,-28.886 438.0415,-29.7965 438.0897,-30.7186 438.0101,-31.6497 437.8065,-32.5873 437.4829,-33.5287 437.0438,-34.4713 436.4941,-35.4127 435.8387,-36.3503 435.083,-37.2814 434.2326,-38.2035 433.293,-39.114 432.27,-40.0106 431.1692,-40.8907 429.9964,-41.7519 428.7572,-42.5918 427.4572,-43.4082 426.1016,-44.1988 424.6957,-44.9615 423.2444,-45.6941 421.7525,-46.3946 420.2244,-47.0612 418.6643,-47.692 417.0762,-48.2853 415.4635,-48.8394 413.8297,-49.3528 412.1778,-49.8241 410.5104,-50.2521 408.83,-50.6355 407.1388,-50.9734 405.4387,-51.2647 403.7316,-51.5087 402.0189,-51.7047 400.3021,-51.8521 398.5824,-51.9507 396.861,-52 395.139,-52 393.4176,-51.9507 391.6979,-51.8521 389.9811,-51.7047 388.2684,-51.5087 386.5613,-51.2647 384.8612,-50.9734 383.17,-50.6355 381.4896,-50.2521 379.8222,-49.8241 378.1703,-49.3528 376.5365,-48.8394 374.9238,-48.2853 373.3357,-47.692 371.7756,-47.0612 370.2475,-46.3946 368.7556,-45.6941 367.3043,-44.9615 365.8984,-44.1988 364.5428,-43.4082 363.2428,-42.5918 362.0036,-41.7519 360.8308,-40.8907 359.73,-40.0106 358.707,-39.114 357.7674,-38.2035 356.917,-37.2814 356.1613,-36.3503 355.5059,-35.4127 354.9562,-34.4713 354.5171,-33.5287 354.1935,-32.5873 353.9899,-31.6497 353.9103,-30.7186 353.9585,-29.7965 354.1376,-28.886 354.4501,-27.9894 354.8983,-27.1093 355.4834,-26.2481 356.2064,-25.4082 357.0674,-24.5918 358.0658,-23.8012 359.2003,-23.0385 360.469,-22.3059 361.8691,-21.6054 363.3972,-20.9388 365.0491,-20.308 366.8198,-19.7147 368.7038,-19.1606 370.6948,-18.6472 372.7859,-18.1759 374.9695,-17.7479 377.2375,-17.3645 379.5813,-17.0266 381.9918,-16.7353 384.4595,-16.4913 386.9744,-16.2953 389.5265,-16.1479 392.1052,-16.0493 394.6999,-16 397.3001,-16 399.8948,-16.0493"/>
<text text-anchor="middle" x="396" y="-29.8" font-family="Helvetica,sans-Serif" font-size="14.00" fill="#000000">launch</text>
</g>
<!-- var_v2&#45;&gt;node_g2_n0 -->
<g id="edge4" class="edge">
<title>var_v2-&gt;node_g2_n0</title>
<path fill="none" stroke="#64bbe2" d="M314.2598,-87.7936C318.1963,-85.1742 322.2,-82.5152 326,-80 339.6079,-70.993 354.7365,-61.0434 367.4377,-52.7083"/>
<ellipse fill="#64bbe2" stroke="#64bbe2" cx="370.8745" cy="-50.454" rx="4" ry="4"/>
</g>
<!-- node_g1 -->
<g id="node4" class="node">
<title>node_g1</title>
<polygon fill="#d5e8d4" stroke="#82b366" points="57.5246,-88.0493 59.8582,-88.1479 62.1676,-88.2953 64.4435,-88.4913 66.6766,-88.7353 68.858,-89.0266 70.979,-89.3645 73.0314,-89.7479 75.0074,-90.1759 76.8997,-90.6472 78.7014,-91.1606 80.4064,-91.7147 82.0088,-92.308 83.5036,-92.9388 84.8864,-93.6054 86.1535,-94.3059 87.3016,-95.0385 88.3282,-95.8012 89.2317,-96.5918 90.0109,-97.4082 90.6651,-98.2481 91.1947,-99.1093 91.6002,-99.9894 91.8831,-100.886 92.0451,-101.7965 92.0887,-102.7186 92.0167,-103.6497 91.8325,-104.5873 91.5396,-105.5287 91.1423,-106.4713 90.6448,-107.4127 90.0517,-108.3503 89.3678,-109.2814 88.5982,-110.2035 87.748,-111.114 86.8222,-112.0106 85.8261,-112.8907 84.7648,-113.7519 83.6434,-114.5918 82.4669,-115.4082 81.2402,-116.1988 79.9679,-116.9615 78.6546,-117.6941 77.3045,-118.3946 75.9217,-119.0612 74.5099,-119.692 73.0727,-120.2853 71.6134,-120.8394 70.1349,-121.3528 68.6399,-121.8241 67.131,-122.2521 65.6104,-122.6355 64.0799,-122.9734 62.5415,-123.2647 60.9966,-123.5087 59.4468,-123.7047 57.8931,-123.8521 56.3369,-123.9507 54.7791,-124 53.2209,-124 51.6631,-123.9507 50.1069,-123.8521 48.5532,-123.7047 47.0034,-123.5087 45.4585,-123.2647 43.9201,-122.9734 42.3896,-122.6355 40.869,-122.2521 39.3601,-121.8241 37.8651,-121.3528 36.3866,-120.8394 34.9273,-120.2853 33.4901,-119.692 32.0783,-119.0612 30.6955,-118.3946 29.3454,-117.6941 28.0321,-116.9615 26.7598,-116.1988 25.5331,-115.4082 24.3566,-114.5918 23.2352,-113.7519 22.1739,-112.8907 21.1778,-112.0106 20.252,-111.114 19.4018,-110.2035 18.6322,-109.2814 17.9483,-108.3503 17.3552,-107.4127 16.8577,-106.4713 16.4604,-105.5287 16.1675,-104.5873 15.9833,-103.6497 15.9113,-102.7186 15.9549,-101.7965 16.1169,-100.886 16.3998,-99.9894 16.8053,-99.1093 17.3349,-98.2481 17.9891,-97.4082 18.7683,-96.5918 19.6718,-95.8012 20.6984,-95.0385 21.8465,-94.3059 23.1136,-93.6054 24.4964,-92.9388 25.9912,-92.308 27.5936,-91.7147 29.2986,-91.1606 31.1003,-90.6472 32.9926,-90.1759 34.9686,-89.7479 37.021,-89.3645 39.142,-89.0266 41.3234,-88.7353 43.5565,-88.4913 45.8324,-88.2953 48.1418,-88.1479 50.4754,-88.0493 52.8235,-88 55.1765,-88 57.5246,-88.0493"/>
<text text-anchor="middle" x="54" y="-101.8" font-family="Helvetica,sans-Serif" font-size="14.00" fill="#000000">graph</text>
</g>
<!-- node_g1&#45;&gt;node_g1_n0 -->
<g id="edge3" class="edge">
<title>node_g1-&gt;node_g1_n0</title>
<path fill="none" stroke="#82b366" d="M55.2617,-87.8314C55.7965,-80.131 56.4323,-70.9743 57.0266,-62.4166"/>
<polygon fill="#82b366" stroke="#82b366" points="60.52,-62.6317 57.7213,-52.4133 53.5368,-62.1467 60.52,-62.6317"/>
</g>
<!-- node_g2 -->
<g id="node6" class="node">
<title>node_g2</title>
<polygon fill="#d5e8d4" stroke="#82b366" points="418.8575,-88.0493 423.3977,-88.1479 427.891,-88.2953 432.319,-88.4913 436.6637,-88.7353 440.9078,-89.0266 445.0344,-89.3645 449.0277,-89.7479 452.8722,-90.1759 456.5539,-90.6472 460.0594,-91.1606 463.3765,-91.7147 466.4941,-92.308 469.4025,-92.9388 472.0929,-93.6054 474.5581,-94.3059 476.7918,-95.0385 478.7894,-95.8012 480.5472,-96.5918 482.0631,-97.4082 483.336,-98.2481 484.3663,-99.1093 485.1553,-99.9894 485.7057,-100.886 486.0209,-101.7965 486.1057,-102.7186 485.9657,-103.6497 485.6072,-104.5873 485.0375,-105.5287 484.2644,-106.4713 483.2964,-107.4127 482.1425,-108.3503 480.812,-109.2814 479.3147,-110.2035 477.6604,-111.114 475.8592,-112.0106 473.9211,-112.8907 471.8562,-113.7519 469.6745,-114.5918 467.3855,-115.4082 464.9988,-116.1988 462.5234,-116.9615 459.9682,-117.6941 457.3414,-118.3946 454.651,-119.0612 451.9042,-119.692 449.108,-120.2853 446.2687,-120.8394 443.3922,-121.3528 440.4836,-121.8241 437.5479,-122.2521 434.5892,-122.6355 431.6116,-122.9734 428.6184,-123.2647 425.6127,-123.5087 422.5973,-123.7047 419.5745,-123.8521 416.5467,-123.9507 413.5159,-124 410.4841,-124 407.4533,-123.9507 404.4255,-123.8521 401.4027,-123.7047 398.3873,-123.5087 395.3816,-123.2647 392.3884,-122.9734 389.4108,-122.6355 386.4521,-122.2521 383.5164,-121.8241 380.6078,-121.3528 377.7313,-120.8394 374.892,-120.2853 372.0958,-119.692 369.349,-119.0612 366.6586,-118.3946 364.0318,-117.6941 361.4766,-116.9615 359.0012,-116.1988 356.6145,-115.4082 354.3255,-114.5918 352.1438,-113.7519 350.0789,-112.8907 348.1408,-112.0106 346.3396,-111.114 344.6853,-110.2035 343.188,-109.2814 341.8575,-108.3503 340.7036,-107.4127 339.7356,-106.4713 338.9625,-105.5287 338.3928,-104.5873 338.0343,-103.6497 337.8943,-102.7186 337.9791,-101.7965 338.2943,-100.886 338.8447,-99.9894 339.6337,-99.1093 340.664,-98.2481 341.9369,-97.4082 343.4528,-96.5918 345.2106,-95.8012 347.2082,-95.0385 349.4419,-94.3059 351.9071,-93.6054 354.5975,-92.9388 357.5059,-92.308 360.6235,-91.7147 363.9406,-91.1606 367.4461,-90.6472 371.1278,-90.1759 374.9723,-89.7479 378.9656,-89.3645 383.0922,-89.0266 387.3363,-88.7353 391.681,-88.4913 396.109,-88.2953 400.6023,-88.1479 405.1425,-88.0493 409.711,-88 414.289,-88 418.8575,-88.0493"/>
<text text-anchor="middle" x="412" y="-101.8" font-family="Helvetica,sans-Serif" font-size="14.00" fill="#000000">launch_graph</text>
</g>
<!-- node_g2&#45;&gt;node_g2_n0 -->
<g id="edge5" class="edge">
<title>node_g2-&gt;node_g2_n0</title>
<path fill="none" stroke="#82b366" d="M407.9625,-87.8314C406.2059,-79.9266 404.1083,-70.4872 402.1637,-61.7365"/>
<polygon fill="#82b366" stroke="#82b366" points="405.5668,-60.916 399.9808,-51.9134 398.7335,-62.4346 405.5668,-60.916"/>
</g>
</g>
</svg>