<?xml version="1.0" encoding="UTF-8" standalone="no"?><!DOCTYPE svg PUBLIC "-//W3C//DTD SVG 1.1//EN" "http://www.w3.org/Graphics/SVG/1.1/DTD/svg11.dtd"><!-- Generated by graphviz version 2.40.1 (20161225.0304)
 --><!-- Title: G Pages: 1 --><svg xmlns="http://www.w3.org/2000/svg" xmlns:xlink="http://www.w3.org/1999/xlink" width="521pt" height="332pt" viewBox="0.00 0.00 521.12 332.00">
<g id="graph0" class="graph" transform="scale(1 1) rotate(0) translate(4 328)">
<title>G</title>
<polygon fill="#ffffff" stroke="transparent" points="-4,4 -4,-328 517.1206,-328 517.1206,4 -4,4"/>
<!-- var0 -->
<g id="node1" class="node">
<title>var0</title>
<polygon fill="none" stroke="#000000" points="245,-108 191,-108 191,-72 245,-72 245,-108"/>
<text text-anchor="middle" x="218" y="-85.8" font-family="Times,serif" font-size="14.00" fill="#000000">x_0</text>
</g>
<!-- node_3 -->
<g id="node11" class="node">
<title>node_3</title>
<ellipse fill="none" stroke="#000000" cx="295" cy="-18" rx="40.5441" ry="18"/>
<text text-anchor="middle" x="295" y="-13.8" font-family="Times,serif" font-size="14.00" fill="#000000">transfer</text>
</g>
<!-- var0&#45;&gt;node_3 -->
<g id="edge14" class="edge">
<title>var0-&gt;node_3</title>
<path fill="none" stroke="#ff0000" d="M237.4304,-71.8314C246.8447,-63.0283 258.2944,-52.3221 268.4957,-42.7832"/>
<polygon fill="#ff0000" stroke="#ff0000" points="268.654,-42.6352 270.3046,-35.6156 277.4191,-34.4393 275.7685,-41.459 268.654,-42.6352"/>
</g>
<!-- var1 -->
<g id="node2" class="node">
<title>var1</title>
<polygon fill="none" stroke="#000000" points="491,-108 437,-108 437,-72 491,-72 491,-108"/>
<text text-anchor="middle" x="464" y="-85.8" font-family="Times,serif" font-size="14.00" fill="#000000">h_x</text>
</g>
<!-- node_4 -->
<g id="node12" class="node">
<title>node_4</title>
<ellipse fill="none" stroke="#000000" cx="464" cy="-18" rx="49.2415" ry="18"/>
<text text-anchor="middle" x="464" y="-13.8" font-family="Times,serif" font-size="14.00" fill="#000000">download</text>
</g>
<!-- var1&#45;&gt;node_4 -->
<g id="edge16" class="edge">
<title>var1-&gt;node_4</title>
<path fill="none" stroke="#ff0000" d="M464,-71.8314C464,-64.8079 464,-56.573 464,-48.6861"/>
<polygon fill="#ff0000" stroke="#ff0000" points="464.0001,-48.4133 460,-42.4133 464,-36.4133 468,-42.4132 464.0001,-48.4133"/>
</g>
<!-- var2 -->
<g id="node3" class="node">
<title>var2</title>
<polygon fill="none" stroke="#000000" points="426,-252 372,-252 372,-216 426,-216 426,-252"/>
<text text-anchor="middle" x="399" y="-229.8" font-family="Times,serif" font-size="14.00" fill="#000000">x</text>
</g>
<!-- node_1 -->
<g id="node9" class="node">
<title>node_1</title>
<ellipse fill="none" stroke="#000000" cx="185" cy="-162" rx="27" ry="18"/>
<text text-anchor="middle" x="185" y="-157.8" font-family="Times,serif" font-size="14.00" fill="#000000">cd</text>
</g>
<!-- var2&#45;&gt;node_1 -->
<g id="edge4" class="edge">
<title>var2-&gt;node_1</title>
<path fill="none" stroke="#00ff00" d="M371.8968,-224.8812C332.38,-211.5858 259.0846,-186.9256 216.9806,-172.7598"/>
<ellipse fill="#00ff00" stroke="#00ff00" cx="213.0372" cy="-171.4331" rx="4" ry="4"/>
</g>
<!-- node_2 -->
<g id="node10" class="node">
<title>node_2</title>
<ellipse fill="none" stroke="#000000" cx="295" cy="-90" rx="31.9012" ry="18"/>
<text text-anchor="middle" x="295" y="-85.8" font-family="Times,serif" font-size="14.00" fill="#000000">cal_x</text>
</g>
<!-- var2&#45;&gt;node_2 -->
<g id="edge9" class="edge">
<title>var2-&gt;node_2</title>
<path fill="none" stroke="#ff0000" d="M390.2267,-215.9553C380.7342,-197.1932 364.5806,-167.3567 347,-144 339.2158,-133.6583 329.6318,-123.202 320.8211,-114.281"/>
<polygon fill="#ff0000" stroke="#ff0000" points="320.5717,-114.035 313.4909,-112.6702 312.0273,-105.6092 319.1081,-106.974 320.5717,-114.035"/>
</g>
<!-- var2&#45;&gt;node_3 -->
<g id="edge15" class="edge">
<title>var2-&gt;node_3</title>
<path fill="none" stroke="#00ff00" d="M394.5163,-215.7592C389.7633,-197.3531 381.6219,-168.2625 372,-144 358.8109,-110.7427 354.8988,-102.3782 336,-72 329.4955,-61.5446 321.4607,-50.6171 314.2324,-41.3492"/>
<ellipse fill="#00ff00" stroke="#00ff00" cx="311.6283" cy="-38.0604" rx="4" ry="4"/>
</g>
<!-- var2&#45;&gt;node_4 -->
<g id="edge17" class="edge">
<title>var2-&gt;node_4</title>
<path fill="none" stroke="#00ff00" d="M420.6248,-215.7225C445.3093,-193.2945 484.2953,-152.7013 500,-108 505.3034,-92.9045 504.6365,-87.3135 500,-72 496.7216,-61.1723 490.477,-50.5313 484.0972,-41.5961"/>
<ellipse fill="#00ff00" stroke="#00ff00" cx="481.6397" cy="-38.3206" rx="4" ry="4"/>
</g>
<!-- var3 -->
<g id="node4" class="node">
<title>var3</title>
<polygon fill="none" stroke="#000000" points="229,-324 175,-324 175,-288 229,-288 229,-324"/>
<text text-anchor="middle" x="202" y="-301.8" font-family="Times,serif" font-size="14.00" fill="#000000">v</text>
</g>
<!-- node_0 -->
<g id="node8" class="node">
<title>node_0</title>
<ellipse fill="none" stroke="#000000" cx="87" cy="-234" rx="31.9012" ry="18"/>
<text text-anchor="middle" x="87" y="-229.8" font-family="Times,serif" font-size="14.00" fill="#000000">cal_v</text>
</g>
<!-- var3&#45;&gt;node_0 -->
<g id="edge1" class="edge">
<title>var3-&gt;node_0</title>
<path fill="none" stroke="#ff0000" d="M174.7466,-288.937C158.0254,-278.4681 136.5334,-265.0122 119.005,-254.0379"/>
<polygon fill="#ff0000" stroke="#ff0000" points="118.8523,-253.9424 111.6441,-254.1487 108.6813,-247.5744 115.8895,-247.368 118.8523,-253.9424"/>
</g>
<!-- var3&#45;&gt;node_1 -->
<g id="edge5" class="edge">
<title>var3-&gt;node_1</title>
<path fill="none" stroke="#00ff00" d="M199.8469,-287.7623C196.8707,-262.5518 191.4825,-216.9103 188.0807,-188.0952"/>
<ellipse fill="#00ff00" stroke="#00ff00" cx="187.6046" cy="-184.062" rx="4" ry="4"/>
</g>
<!-- var3&#45;&gt;node_2 -->
<g id="edge10" class="edge">
<title>var3-&gt;node_2</title>
<path fill="none" stroke="#00ff00" d="M229.46,-300.6276C255.0482,-294.0062 291.7679,-279.9987 309,-252 335.0268,-209.7116 318.6778,-149.0542 305.8986,-115.2355"/>
<ellipse fill="#00ff00" stroke="#00ff00" cx="304.3795" cy="-111.3659" rx="4" ry="4"/>
</g>
<!-- var4 -->
<g id="node5" class="node">
<title>var4</title>
<polygon fill="none" stroke="#000000" points="267,-252 213,-252 213,-216 267,-216 267,-252"/>
<text text-anchor="middle" x="240" y="-229.8" font-family="Times,serif" font-size="14.00" fill="#000000">toi</text>
</g>
<!-- var4&#45;&gt;node_1 -->
<g id="edge6" class="edge">
<title>var4-&gt;node_1</title>
<path fill="none" stroke="#00ff00" d="M226.1212,-215.8314C218.9849,-206.4893 210.2114,-195.004 202.6038,-185.045"/>
<ellipse fill="#00ff00" stroke="#00ff00" cx="199.986" cy="-181.618" rx="4" ry="4"/>
</g>
<!-- var4&#45;&gt;node_2 -->
<g id="edge11" class="edge">
<title>var4-&gt;node_2</title>
<path fill="none" stroke="#00ff00" d="M246.9658,-215.7623C256.689,-190.3053 274.369,-144.0156 285.3541,-115.2546"/>
<ellipse fill="#00ff00" stroke="#00ff00" cx="286.8356" cy="-111.3759" rx="4" ry="4"/>
</g>
<!-- var5 -->
<g id="node6" class="node">
<title>var5</title>
<polygon fill="none" stroke="#000000" points="157,-324 103,-324 103,-288 157,-288 157,-324"/>
<text text-anchor="middle" x="130" y="-301.8" font-family="Times,serif" font-size="14.00" fill="#000000">dt</text>
</g>
<!-- var5&#45;&gt;node_0 -->
<g id="edge2" class="edge">
<title>var5-&gt;node_0</title>
<path fill="none" stroke="#00ff00" d="M119.1493,-287.8314C113.8359,-278.9346 107.3616,-268.0939 101.6194,-258.4789"/>
<ellipse fill="#00ff00" stroke="#00ff00" cx="99.4532" cy="-254.8519" rx="4" ry="4"/>
</g>
<!-- var5&#45;&gt;node_1 -->
<g id="edge7" class="edge">
<title>var5-&gt;node_1</title>
<path fill="none" stroke="#00ff00" d="M136.9658,-287.7623C146.689,-262.3053 164.369,-216.0156 175.3541,-187.2546"/>
<ellipse fill="#00ff00" stroke="#00ff00" cx="176.8356" cy="-183.3759" rx="4" ry="4"/>
</g>
<!-- var5&#45;&gt;node_2 -->
<g id="edge12" class="edge">
<title>var5-&gt;node_2</title>
<path fill="none" stroke="#00ff00" d="M157.3245,-291.8172C160.2265,-290.4676 163.1562,-289.1688 166,-288 213.5784,-268.4445 243.4299,-291.816 276,-252 307.5703,-213.4063 304.7006,-151.2642 299.8318,-116.2248"/>
<ellipse fill="#00ff00" stroke="#00ff00" cx="299.172" cy="-111.8859" rx="4" ry="4"/>
</g>
<!-- var6 -->
<g id="node7" class="node">
<title>var6</title>
<polygon fill="none" stroke="#000000" points="54,-324 0,-324 0,-288 54,-288 54,-324"/>
<text text-anchor="middle" x="27" y="-301.8" font-family="Times,serif" font-size="14.00" fill="#000000">N</text>
</g>
<!-- var6&#45;&gt;node_0 -->
<g id="edge3" class="edge">
<title>var6-&gt;node_0</title>
<path fill="none" stroke="#00ff00" d="M42.1405,-287.8314C50.0004,-278.3995 59.6809,-266.783 68.0349,-256.7582"/>
<ellipse fill="#00ff00" stroke="#00ff00" cx="70.7398" cy="-253.5122" rx="4" ry="4"/>
</g>
<!-- var6&#45;&gt;node_1 -->
<g id="edge8" class="edge">
<title>var6-&gt;node_1</title>
<path fill="none" stroke="#00ff00" d="M26.0304,-287.9418C25.9442,-268.0485 28.8382,-236.2042 46,-216 72.1552,-185.208 118.0747,-171.8906 149.9432,-166.1854"/>
<ellipse fill="#00ff00" stroke="#00ff00" cx="154.1795" cy="-165.4844" rx="4" ry="4"/>
</g>
<!-- var6&#45;&gt;node_2 -->
<g id="edge13" class="edge">
<title>var6-&gt;node_2</title>
<path fill="none" stroke="#00ff00" d="M22.3358,-287.773C18.4868,-268.8621 15.2239,-238.9059 26,-216 47.3659,-170.5841 68.2665,-166.7601 113,-144 170.6447,-114.6708 192.8514,-129.0703 254,-108 256.8113,-107.0313 259.6978,-105.9502 262.5742,-104.812"/>
<ellipse fill="#00ff00" stroke="#00ff00" cx="266.409" cy="-103.2294" rx="4" ry="4"/>
</g>
<!-- node_0&#45;&gt;node_1 -->
<g id="edge18" class="edge">
<title>node_0-&gt;node_1</title>
<path fill="none" stroke="#000000" d="M106.8318,-219.4297C121.7868,-208.4424 142.4411,-193.2677 158.7631,-181.2761"/>
<polygon fill="#000000" stroke="#000000" points="160.8638,-184.0759 166.8503,-175.3345 156.7192,-178.4347 160.8638,-184.0759"/>
</g>
<!-- node_0&#45;&gt;node_2 -->
<g id="edge20" class="edge">
<title>node_0-&gt;node_2</title>
<path fill="none" stroke="#000000" d="M94.9389,-216.2359C104.8388,-196.0036 123.6036,-163.2637 149,-144 188.3053,-114.1861 208.0408,-125.9313 254,-108 256.1998,-107.1417 258.4548,-106.2337 260.7209,-105.2999"/>
<polygon fill="#000000" stroke="#000000" points="262.1427,-108.4987 269.9864,-101.3765 259.4132,-102.0528 262.1427,-108.4987"/>
</g>
<!-- node_1&#45;&gt;node_2 -->
<g id="edge19" class="edge">
<title>node_1-&gt;node_2</title>
<path fill="none" stroke="#000000" d="M204.4126,-149.2936C221.3141,-138.2308 246.0731,-122.0249 265.4371,-109.3503"/>
<polygon fill="#000000" stroke="#000000" points="267.4566,-112.2115 273.9068,-103.8064 263.623,-106.3546 267.4566,-112.2115"/>
</g>
<!-- node_2&#45;&gt;node_3 -->
<g id="edge21" class="edge">
<title>node_2-&gt;node_3</title>
<path fill="none" stroke="#000000" d="M295,-71.8314C295,-64.131 295,-54.9743 295,-46.4166"/>
<polygon fill="#000000" stroke="#000000" points="298.5001,-46.4132 295,-36.4133 291.5001,-46.4133 298.5001,-46.4132"/>
</g>
<!-- node_2&#45;&gt;node_4 -->
<g id="edge22" class="edge">
<title>node_2-&gt;node_4</title>
<path fill="none" stroke="#000000" d="M320.6675,-79.0647C347.6129,-67.585 390.4034,-49.3547 422.2244,-35.7979"/>
<polygon fill="#000000" stroke="#000000" points="423.89,-38.8928 431.718,-31.7533 421.1463,-32.4529 423.89,-38.8928"/>
</g>
</g>
</svg>