<?xml version="1.0" encoding="UTF-8" standalone="no"?><!DOCTYPE svg PUBLIC "-//W3C//DTD SVG 1.1//EN" "http://www.w3.org/Graphics/SVG/1.1/DTD/svg11.dtd"><!-- Generated by graphviz version 2.40.1 (20161225.0304)
 --><!-- Title: G Pages: 1 --><svg xmlns="http://www.w3.org/2000/svg" xmlns:xlink="http://www.w3.org/1999/xlink" width="412pt" height="260pt" viewBox="0.00 0.00 412.04 260.00">
<g id="graph0" class="graph" transform="scale(1 1) rotate(0) translate(4 256)">
<title>G</title>
<polygon fill="#ffffff" stroke="transparent" points="-4,4 -4,-256 408.04,-256 408.04,4 -4,4"/>
<!-- var0 -->
<g id="node1" class="node">
<title>var0</title>
<path fill="#f5af58" stroke="#f08705" d="M153.04,-252C153.04,-252 123.04,-252 123.04,-252 117.04,-252 111.04,-246 111.04,-240 111.04,-240 111.04,-228 111.04,-228 111.04,-222 117.04,-216 123.04,-216 123.04,-216 153.04,-216 153.04,-216 159.04,-216 165.04,-222 165.04,-228 165.04,-228 165.04,-240 165.04,-240 165.04,-246 159.04,-252 153.04,-252"/>
<text text-anchor="middle" x="138.04" y="-229.8" font-family="Times,serif" font-size="14.00" fill="#000000">N</text>
</g>
<!-- node_0 -->
<g id="node5" class="node">
<title>node_0</title>
<polygon fill="#d5e8d4" stroke="#82b366" points="178.1227,-144.0493 180.8257,-144.1479 183.5008,-144.2953 186.1371,-144.4913 188.7237,-144.7353 191.2505,-145.0266 193.7074,-145.3645 196.0848,-145.7479 198.3737,-146.1759 200.5656,-146.6472 202.6526,-147.1606 204.6274,-147.7147 206.4836,-148.308 208.2151,-148.9388 209.8169,-149.6054 211.2845,-150.3059 212.6144,-151.0385 213.8037,-151.8012 214.8502,-152.5918 215.7527,-153.4082 216.5106,-154.2481 217.124,-155.1093 217.5937,-155.9894 217.9213,-156.886 218.109,-157.7965 218.1595,-158.7186 218.0762,-159.6497 217.8627,-160.5873 217.5235,-161.5287 217.0633,-162.4713 216.487,-163.4127 215.8,-164.3503 215.0079,-165.2814 214.1164,-166.2035 213.1315,-167.114 212.0591,-168.0106 210.9053,-168.8907 209.676,-169.7519 208.377,-170.5918 207.0142,-171.4082 205.5933,-172.1988 204.1196,-172.9615 202.5983,-173.6941 201.0344,-174.3946 199.4327,-175.0612 197.7974,-175.692 196.1326,-176.2853 194.4422,-176.8394 192.7296,-177.3528 190.998,-177.8241 189.2501,-178.2521 187.4887,-178.6355 185.7159,-178.9734 183.9339,-179.2647 182.1445,-179.5087 180.3492,-179.7047 178.5495,-179.8521 176.7469,-179.9507 174.9425,-180 173.1375,-180 171.3331,-179.9507 169.5304,-179.8521 167.7308,-179.7047 165.9355,-179.5087 164.1461,-179.2647 162.364,-178.9734 160.5913,-178.6355 158.8298,-178.2521 157.082,-177.8241 155.3504,-177.3528 153.6378,-176.8394 151.9474,-176.2853 150.2826,-175.692 148.6473,-175.0612 147.0455,-174.3946 145.4817,-173.6941 143.9604,-172.9615 142.4867,-172.1988 141.0657,-171.4082 139.703,-170.5918 138.404,-169.7519 137.1747,-168.8907 136.0208,-168.0106 134.9485,-167.114 133.9636,-166.2035 133.0721,-165.2814 132.28,-164.3503 131.593,-163.4127 131.0167,-162.4713 130.5565,-161.5287 130.2173,-160.5873 130.0038,-159.6497 129.9205,-158.7186 129.971,-157.7965 130.1586,-156.886 130.4863,-155.9894 130.956,-155.1093 131.5694,-154.2481 132.3273,-153.4082 133.2298,-152.5918 134.2763,-151.8012 135.4656,-151.0385 136.7955,-150.3059 138.2631,-149.6054 139.8649,-148.9388 141.5964,-148.308 143.4525,-147.7147 145.4274,-147.1606 147.5144,-146.6472 149.7063,-146.1759 151.9952,-145.7479 154.3726,-145.3645 156.8295,-145.0266 159.3562,-144.7353 161.9429,-144.4913 164.5792,-144.2953 167.2543,-144.1479 169.9573,-144.0493 172.6772,-144 175.4028,-144 178.1227,-144.0493"/>
<text text-anchor="middle" x="174.04" y="-157.8" font-family="Times,serif" font-size="14.00" fill="#000000">cal_x_0</text>
</g>
<!-- var0&#45;&gt;node_0 -->
<g id="edge1" class="edge">
<title>var0-&gt;node_0</title>
<path fill="none" stroke="#64bbe2" d="M147.1243,-215.8314C151.4634,-207.1533 156.7271,-196.6257 161.4449,-187.1902"/>
<ellipse fill="#64bbe2" stroke="#64bbe2" cx="163.2944" cy="-183.4911" rx="4" ry="4"/>
</g>
<!-- node_1 -->
<g id="node6" class="node">
<title>node_1</title>
<polygon fill="#d5e8d4" stroke="#82b366" points="135.1611,-72.0493 138.5516,-72.1479 141.9072,-72.2953 145.2139,-72.4913 148.4585,-72.7353 151.6279,-73.0266 154.7097,-73.3645 157.6918,-73.7479 160.5628,-74.1759 163.3122,-74.6472 165.9301,-75.1606 168.4073,-75.7147 170.7355,-76.308 172.9074,-76.9388 174.9166,-77.6054 176.7575,-78.3059 178.4257,-79.0385 179.9174,-79.8012 181.2301,-80.5918 182.3622,-81.4082 183.3128,-82.2481 184.0822,-83.1093 184.6714,-83.9894 185.0824,-84.886 185.3178,-85.7965 185.3812,-86.7186 185.2766,-87.6497 185.0089,-88.5873 184.5834,-89.5287 184.0061,-90.4713 183.2832,-91.4127 182.4215,-92.3503 181.4279,-93.2814 180.3097,-94.2035 179.0743,-95.114 177.7292,-96.0106 176.2819,-96.8907 174.7398,-97.7519 173.1105,-98.5918 171.4011,-99.4082 169.6188,-100.1988 167.7702,-100.9615 165.862,-101.6941 163.9004,-102.3946 161.8912,-103.0612 159.84,-103.692 157.7518,-104.2853 155.6314,-104.8394 153.4832,-105.3528 151.3112,-105.8241 149.1188,-106.2521 146.9093,-106.6355 144.6857,-106.9734 142.4504,-107.2647 140.2058,-107.5087 137.9539,-107.7047 135.6965,-107.8521 133.4354,-107.9507 131.172,-108 128.908,-108 126.6446,-107.9507 124.3835,-107.8521 122.1261,-107.7047 119.8742,-107.5087 117.6296,-107.2647 115.3943,-106.9734 113.1706,-106.6355 110.9612,-106.2521 108.7688,-105.8241 106.5967,-105.3528 104.4485,-104.8394 102.3282,-104.2853 100.24,-103.692 98.1888,-103.0612 96.1796,-102.3946 94.218,-101.6941 92.3098,-100.9615 90.4612,-100.1988 88.6788,-99.4082 86.9695,-98.5918 85.3401,-97.7519 83.7981,-96.8907 82.3508,-96.0106 81.0057,-95.114 79.7703,-94.2035 78.6521,-93.2814 77.6585,-92.3503 76.7968,-91.4127 76.0739,-90.4713 75.4966,-89.5287 75.0711,-88.5873 74.8034,-87.6497 74.6988,-86.7186 74.7621,-85.7965 74.9976,-84.886 75.4085,-83.9894 75.9978,-83.1093 76.7672,-82.2481 77.7178,-81.4082 78.8498,-80.5918 80.1626,-79.8012 81.6543,-79.0385 83.3224,-78.3059 85.1634,-77.6054 87.1726,-76.9388 89.3445,-76.308 91.6727,-75.7147 94.1499,-75.1606 96.7677,-74.6472 99.5172,-74.1759 102.3882,-73.7479 105.3703,-73.3645 108.452,-73.0266 111.6215,-72.7353 114.8661,-72.4913 118.1728,-72.2953 121.5283,-72.1479 124.9189,-72.0493 128.3306,-72 131.7494,-72 135.1611,-72.0493"/>
<text text-anchor="middle" x="130.04" y="-85.8" font-family="Times,serif" font-size="14.00" fill="#000000">copy_to_x</text>
</g>
<!-- var0&#45;&gt;node_1 -->
<g id="edge3" class="edge">
<title>var0-&gt;node_1</title>
<path fill="none" stroke="#64bbe2" d="M130.7961,-215.8366C127.0688,-205.513 122.9212,-192.2403 121.04,-180 117.7601,-158.659 120.5999,-134.2792 123.9317,-116.2814"/>
<ellipse fill="#64bbe2" stroke="#64bbe2" cx="124.8003" cy="-111.9229" rx="4" ry="4"/>
</g>
<!-- node_2 -->
<g id="node7" class="node">
<title>node_2</title>
<polygon fill="#d5e8d4" stroke="#82b366" points="263.1611,-72.0493 266.5516,-72.1479 269.9072,-72.2953 273.2139,-72.4913 276.4585,-72.7353 279.6279,-73.0266 282.7097,-73.3645 285.6918,-73.7479 288.5628,-74.1759 291.3122,-74.6472 293.9301,-75.1606 296.4073,-75.7147 298.7355,-76.308 300.9074,-76.9388 302.9166,-77.6054 304.7575,-78.3059 306.4257,-79.0385 307.9174,-79.8012 309.2301,-80.5918 310.3622,-81.4082 311.3128,-82.2481 312.0822,-83.1093 312.6714,-83.9894 313.0824,-84.886 313.3178,-85.7965 313.3812,-86.7186 313.2766,-87.6497 313.0089,-88.5873 312.5834,-89.5287 312.0061,-90.4713 311.2832,-91.4127 310.4215,-92.3503 309.4279,-93.2814 308.3097,-94.2035 307.0743,-95.114 305.7292,-96.0106 304.2819,-96.8907 302.7398,-97.7519 301.1105,-98.5918 299.4011,-99.4082 297.6188,-100.1988 295.7702,-100.9615 293.862,-101.6941 291.9004,-102.3946 289.8912,-103.0612 287.84,-103.692 285.7518,-104.2853 283.6314,-104.8394 281.4832,-105.3528 279.3112,-105.8241 277.1188,-106.2521 274.9093,-106.6355 272.6857,-106.9734 270.4504,-107.2647 268.2058,-107.5087 265.9539,-107.7047 263.6965,-107.8521 261.4354,-107.9507 259.172,-108 256.908,-108 254.6446,-107.9507 252.3835,-107.8521 250.1261,-107.7047 247.8742,-107.5087 245.6296,-107.2647 243.3943,-106.9734 241.1706,-106.6355 238.9612,-106.2521 236.7688,-105.8241 234.5967,-105.3528 232.4485,-104.8394 230.3282,-104.2853 228.24,-103.692 226.1888,-103.0612 224.1796,-102.3946 222.218,-101.6941 220.3098,-100.9615 218.4612,-100.1988 216.6788,-99.4082 214.9695,-98.5918 213.3401,-97.7519 211.7981,-96.8907 210.3508,-96.0106 209.0057,-95.114 207.7703,-94.2035 206.6521,-93.2814 205.6585,-92.3503 204.7968,-91.4127 204.0739,-90.4713 203.4966,-89.5287 203.0711,-88.5873 202.8034,-87.6497 202.6988,-86.7186 202.7621,-85.7965 202.9976,-84.886 203.4085,-83.9894 203.9978,-83.1093 204.7672,-82.2481 205.7178,-81.4082 206.8498,-80.5918 208.1626,-79.8012 209.6543,-79.0385 211.3224,-78.3059 213.1634,-77.6054 215.1726,-76.9388 217.3445,-76.308 219.6727,-75.7147 222.1499,-75.1606 224.7677,-74.6472 227.5172,-74.1759 230.3882,-73.7479 233.3703,-73.3645 236.452,-73.0266 239.6215,-72.7353 242.8661,-72.4913 246.1728,-72.2953 249.5283,-72.1479 252.9189,-72.0493 256.3306,-72 259.7494,-72 263.1611,-72.0493"/>
<text text-anchor="middle" x="258.04" y="-85.8" font-family="Times,serif" font-size="14.00" fill="#000000">copy_to_y</text>
</g>
<!-- var0&#45;&gt;node_2 -->
<g id="edge6" class="edge">
<title>var0-&gt;node_2</title>
<path fill="none" stroke="#64bbe2" d="M165.2714,-223.4844C184.9484,-214.6109 210.8178,-200.1191 227.04,-180 241.9493,-161.5092 249.8889,-135.4116 253.9853,-116.0775"/>
<ellipse fill="#64bbe2" stroke="#64bbe2" cx="254.7968" cy="-111.9113" rx="4" ry="4"/>
</g>
<!-- node_3 -->
<g id="node8" class="node">
<title>node_3</title>
<polygon fill="#d5e8d4" stroke="#82b366" points="134.851,-.0493 138.0363,-.1479 141.1887,-.2953 144.2952,-.4913 147.3434,-.7353 150.3209,-1.0266 153.2161,-1.3645 156.0176,-1.7479 158.7149,-2.1759 161.2978,-2.6472 163.7571,-3.1606 166.0843,-3.7147 168.2716,-4.308 170.312,-4.9388 172.1996,-5.6054 173.9291,-6.3059 175.4962,-7.0385 176.8976,-7.8012 178.1309,-8.5918 179.1944,-9.4082 180.0874,-10.2481 180.8103,-11.1093 181.3638,-11.9894 181.7499,-12.886 181.9711,-13.7965 182.0306,-14.7186 181.9323,-15.6497 181.6808,-16.5873 181.2811,-17.5287 180.7388,-18.4713 180.0596,-19.4127 179.2501,-20.3503 178.3167,-21.2814 177.2662,-22.2035 176.1056,-23.114 174.8419,-24.0106 173.4822,-24.8907 172.0335,-25.7519 170.5028,-26.5918 168.897,-27.4082 167.2225,-28.1988 165.4859,-28.9615 163.6932,-29.6941 161.8503,-30.3946 159.9628,-31.0612 158.0357,-31.692 156.074,-32.2853 154.082,-32.8394 152.0639,-33.3528 150.0233,-33.8241 147.9637,-34.2521 145.888,-34.6355 143.799,-34.9734 141.699,-35.2647 139.5903,-35.5087 137.4747,-35.7047 135.3541,-35.8521 133.2298,-35.9507 131.1035,-36 128.9765,-36 126.8502,-35.9507 124.7259,-35.8521 122.6052,-35.7047 120.4897,-35.5087 118.381,-35.2647 116.281,-34.9734 114.192,-34.6355 112.1163,-34.2521 110.0567,-33.8241 108.0161,-33.3528 105.998,-32.8394 104.006,-32.2853 102.0442,-31.692 100.1172,-31.0612 98.2297,-30.3946 96.3868,-29.6941 94.5941,-28.9615 92.8575,-28.1988 91.183,-27.4082 89.5771,-26.5918 88.0465,-25.7519 86.5978,-24.8907 85.2381,-24.0106 83.9744,-23.114 82.8138,-22.2035 81.7633,-21.2814 80.8299,-20.3503 80.0204,-19.4127 79.3412,-18.4713 78.7989,-17.5287 78.3991,-16.5873 78.1476,-15.6497 78.0494,-14.7186 78.1089,-13.7965 78.3301,-12.886 78.7162,-11.9894 79.2697,-11.1093 79.9925,-10.2481 80.8856,-9.4082 81.9491,-8.5918 83.1824,-7.8012 84.5838,-7.0385 86.1509,-6.3059 87.8804,-5.6054 89.7679,-4.9388 91.8084,-4.308 93.9957,-3.7147 96.3228,-3.1606 98.7822,-2.6472 101.3651,-2.1759 104.0624,-1.7479 106.8639,-1.3645 109.7591,-1.0266 112.7366,-.7353 115.7848,-.4913 118.8913,-.2953 122.0437,-.1479 125.229,-.0493 128.4341,0 131.6459,0 134.851,-.0493"/>
<text text-anchor="middle" x="130.04" y="-13.8" font-family="Times,serif" font-size="14.00" fill="#000000">print_x_y</text>
</g>
<!-- var0&#45;&gt;node_3 -->
<g id="edge9" class="edge">
<title>var0-&gt;node_3</title>
<path fill="none" stroke="#64bbe2" d="M110.9383,-231.102C80.7168,-226.2602 33.1797,-213.4717 11.04,-180 -16.9517,-137.6811 14.1445,-109.756 48.04,-72 61.1736,-57.3706 79.1172,-44.9623 94.8709,-35.7433"/>
<ellipse fill="#64bbe2" stroke="#64bbe2" cx="98.4514" cy="-33.7104" rx="4" ry="4"/>
</g>
<!-- var1 -->
<g id="node2" class="node">
<title>var1</title>
<path fill="#f5af58" stroke="#f08705" d="M299.04,-252C299.04,-252 269.04,-252 269.04,-252 263.04,-252 257.04,-246 257.04,-240 257.04,-240 257.04,-228 257.04,-228 257.04,-222 263.04,-216 269.04,-216 269.04,-216 299.04,-216 299.04,-216 305.04,-216 311.04,-222 311.04,-228 311.04,-228 311.04,-240 311.04,-240 311.04,-246 305.04,-252 299.04,-252"/>
<text text-anchor="middle" x="284.04" y="-229.8" font-family="Times,serif" font-size="14.00" fill="#000000">x_0</text>
</g>
<!-- var1&#45;&gt;node_0 -->
<g id="edge2" class="edge">
<title>var1-&gt;node_0</title>
<path fill="none" stroke="#f08e81" d="M256.849,-216.2022C241.6514,-206.2548 222.6096,-193.791 206.6188,-183.3243"/>
<polygon fill="#f08e81" stroke="#f08e81" points="206.1608,-183.0245 198.9499,-183.0854 196.1203,-176.4526 203.3312,-176.3917 206.1608,-183.0245"/>
</g>
<!-- var1&#45;&gt;node_1 -->
<g id="edge4" class="edge">
<title>var1-&gt;node_1</title>
<path fill="none" stroke="#64bbe2" d="M275.9613,-215.9135C266.488,-196.2887 249.2206,-164.9595 227.04,-144 210.4679,-128.3402 188.4989,-115.6223 169.6594,-106.4713"/>
<ellipse fill="#64bbe2" stroke="#64bbe2" cx="165.9596" cy="-104.7247" rx="4" ry="4"/>
</g>
<!-- var1&#45;&gt;node_2 -->
<g id="edge7" class="edge">
<title>var1-&gt;node_2</title>
<path fill="none" stroke="#64bbe2" d="M291.8149,-215.6594C298.5182,-197.1758 305.9693,-168.026 298.04,-144 294.3327,-132.7668 287.2876,-121.9611 280.1301,-113.0063"/>
<ellipse fill="#64bbe2" stroke="#64bbe2" cx="277.5174" cy="-109.8961" rx="4" ry="4"/>
</g>
<!-- var2 -->
<g id="node3" class="node">
<title>var2</title>
<path fill="#f5af58" stroke="#f08705" d="M62.04,-180C62.04,-180 32.04,-180 32.04,-180 26.04,-180 20.04,-174 20.04,-168 20.04,-168 20.04,-156 20.04,-156 20.04,-150 26.04,-144 32.04,-144 32.04,-144 62.04,-144 62.04,-144 68.04,-144 74.04,-150 74.04,-156 74.04,-156 74.04,-168 74.04,-168 74.04,-174 68.04,-180 62.04,-180"/>
<text text-anchor="middle" x="47.04" y="-157.8" font-family="Times,serif" font-size="14.00" fill="#000000">x</text>
</g>
<!-- var2&#45;&gt;node_1 -->
<g id="edge5" class="edge">
<title>var2-&gt;node_1</title>
<path fill="none" stroke="#f08e81" d="M67.9844,-143.8314C78.2359,-134.9385 90.7263,-124.1034 101.8066,-114.4916"/>
<polygon fill="#f08e81" stroke="#f08e81" points="102.0245,-114.3026 103.9357,-107.3494 111.0892,-106.4393 109.1779,-113.3925 102.0245,-114.3026"/>
</g>
<!-- var2&#45;&gt;node_3 -->
<g id="edge10" class="edge">
<title>var2-&gt;node_3</title>
<path fill="none" stroke="#64bbe2" d="M47.4509,-143.8417C48.6298,-124.7181 52.6793,-94.3396 66.04,-72 74.1618,-58.4199 86.9466,-46.626 98.9611,-37.5542"/>
<ellipse fill="#64bbe2" stroke="#64bbe2" cx="102.2829" cy="-35.1473" rx="4" ry="4"/>
</g>
<!-- var3 -->
<g id="node4" class="node">
<title>var3</title>
<path fill="#f5af58" stroke="#f08705" d="M392.04,-180C392.04,-180 362.04,-180 362.04,-180 356.04,-180 350.04,-174 350.04,-168 350.04,-168 350.04,-156 350.04,-156 350.04,-150 356.04,-144 362.04,-144 362.04,-144 392.04,-144 392.04,-144 398.04,-144 404.04,-150 404.04,-156 404.04,-156 404.04,-168 404.04,-168 404.04,-174 398.04,-180 392.04,-180"/>
<text text-anchor="middle" x="377.04" y="-157.8" font-family="Times,serif" font-size="14.00" fill="#000000">y</text>
</g>
<!-- var3&#45;&gt;node_2 -->
<g id="edge8" class="edge">
<title>var3-&gt;node_2</title>
<path fill="none" stroke="#f08e81" d="M350.0371,-145.6621C333.2626,-135.5129 311.5173,-122.356 293.3799,-111.3822"/>
<polygon fill="#f08e81" stroke="#f08e81" points="293.1741,-111.2576 285.9699,-111.574 282.907,-105.0456 290.1112,-104.7293 293.1741,-111.2576"/>
</g>
<!-- var3&#45;&gt;node_3 -->
<g id="edge11" class="edge">
<title>var3-&gt;node_3</title>
<path fill="none" stroke="#64bbe2" d="M370.7045,-143.9914C362.5866,-123.5292 346.5637,-90.5738 322.04,-72 282.576,-42.1108 227.3081,-28.7641 186.1967,-22.8049"/>
<ellipse fill="#64bbe2" stroke="#64bbe2" cx="182.1353" cy="-22.2503" rx="4" ry="4"/>
</g>
<!-- node_0&#45;&gt;node_1 -->
<g id="edge12" class="edge">
<title>node_0-&gt;node_1</title>
<path fill="none" stroke="#82b366" d="M163.1636,-144.2022C157.9951,-135.7448 151.7152,-125.4685 146.0187,-116.147"/>
<polygon fill="#82b366" stroke="#82b366" points="148.9923,-114.3008 140.7913,-107.593 143.0193,-117.951 148.9923,-114.3008"/>
</g>
<!-- node_0&#45;&gt;node_2 -->
<g id="edge13" class="edge">
<title>node_0-&gt;node_2</title>
<path fill="none" stroke="#82b366" d="M193.5224,-145.3008C204.7339,-135.6909 218.9847,-123.476 231.2397,-112.9717"/>
<polygon fill="#82b366" stroke="#82b366" points="233.638,-115.5258 238.9528,-106.3604 229.0825,-110.211 233.638,-115.5258"/>
</g>
<!-- node_1&#45;&gt;node_3 -->
<g id="edge14" class="edge">
<title>node_1-&gt;node_3</title>
<path fill="none" stroke="#82b366" d="M130.04,-71.8314C130.04,-64.131 130.04,-54.9743 130.04,-46.4166"/>
<polygon fill="#82b366" stroke="#82b366" points="133.5401,-46.4132 130.04,-36.4133 126.5401,-46.4133 133.5401,-46.4132"/>
</g>
<!-- node_2&#45;&gt;node_3 -->
<g id="edge15" class="edge">
<title>node_2-&gt;node_3</title>
<path fill="none" stroke="#82b366" d="M229.3143,-73.8418C210.2665,-63.1274 185.1563,-49.0029 164.9559,-37.6402"/>
<polygon fill="#82b366" stroke="#82b366" points="166.4913,-34.4882 156.0596,-32.636 163.0594,-40.5892 166.4913,-34.4882"/>
</g>
</g>
</svg>